<?xml version="1.0" encoding="UTF-8"?>
<svg width="600px" height="638px" viewBox="0 0 600 638" version="1.1" xmlns="http://www.w3.org/2000/svg" xmlns:xlink="http://www.w3.org/1999/xlink">
    <!-- Generator: Sketch 63.1 (92452) - https://sketch.com -->
    <title>Artboard</title>
    <desc>Created with Sketch.</desc>
    <g id="Artboard" stroke="none" stroke-width="1" fill="none" fill-rule="evenodd">
        <g id="undraw_medical_research_qg4d" transform="translate(40.000000, 40.000000)" fill-rule="nonzero">
            <rect id="Rectangle" fill="#CCCCCC" x="151.55666" y="248" width="110" height="123"></rect>
            <polygon id="Path" fill="#E6E6E6" points="95.557 556 39.557 556 33.557 508 101.557 508"></polygon>
            <path d="M208.00708,521.23232 L206.11733,547.06727 C205.94425,549.433127 206.801153,551.758496 208.468024,553.446328 C210.134896,555.13416 212.449375,556.020053 214.81721,555.87655 L228.08714,555.07282 C229.331959,554.997196 230.47859,554.371622 231.215929,553.365827 C231.953269,552.360031 232.20486,551.078311 231.90244,549.86842 L224.5365,520.40561 L208.00708,521.23232 Z" id="Path" fill="#E6E6E6"></path>
            <path d="M319.00264,536.50938 C334.62024,540.16278 345.77675,545.35571 353.10564,552.38372 C355.715607,554.867482 359.130698,556.331449 362.72923,556.50912 C367.32576,556.75086 371.08415,556.23563 373.90867,554.97401 L373.90912,554.97401 C375.38244,554.32448 376.387351,552.926718 376.53381,551.32325 C376.708182,549.69434 375.98518,548.099041 374.64535,547.15638 L337.60581,520.80178 L321.87263,527.09578 L318.20247,530.76594 C317.396979,531.571637 317.015937,532.70844 317.173147,533.836822 C317.330358,534.965205 318.007624,535.95456 319.00267,536.5094 L319.00264,536.50938 Z" id="Path" fill="#E6E6E6"></path>
            <path d="M270.94021,114.69455 L165.06692,113.71424 C165.33315,98.2936 168.92099,83.15093 176.76361,69.60046 C181.91437,60.701 181.80309,51.01572 180.56181,42.85606 C178.64626,30.26406 183.10067,17.38058 192.99889,9.36487 C200.563144,3.22852163 210.11008,0.0697592826 219.84155,0.48353 L221.89735,0.56919 C235.504979,1.13470152 247.890272,8.5837768 254.76789,20.33902 C258.207899,26.5145636 259.595179,33.6239725 258.72923,40.63975 C258.05817,47.24104 259.66389,53.90957 263.41983,60.64161 C269.89977,75.42419 271.30298,94.34041 270.94021,114.69455 Z" id="Path" fill="#2F2E41"></path>
            <path d="M341.77486,522.17633 L320.99608,527.59688 L219.81248,307.16118 L226.13648,522.17633 L205.35768,522.17633 C183.15418,421.01754 143.06715,304.26952 161.08986,267.41048 L268.59743,261.08648 L341.77486,522.17633 Z" id="Path" fill="#63AFB1"></path>
            <circle id="Oval" fill="#FFB9B9" cx="218.90906" cy="49.68505" r="28.00618"></circle>
            <path d="M243.30153,101.18028 L197.22686,98.47 C201.74227,88.10623 203.54598,78.12637 201.74398,68.657 L236.07413,68.657 C235.99633,75.92761 239.61444,88.50442 243.30153,101.18028 Z" id="Path" fill="#FFB9B9"></path>
            <polygon id="Path" fill="#63AFB1" points="272.211 269.217 171.028 276.445 181.417 97.115 199.034 92.146 218.909 96.663 238.784 86.725 251.432 91.243"></polygon>
            <path d="M188.19261,398.4071 L119.08061,382.59716 C139.63121,314.44898 176.6541,158.54594 164.70361,102.98716 L200.84061,86.72551 L188.19261,398.4071 Z" id="Path" fill="#E6E6E6"></path>
            <path d="M154.76588,201.46045 L128.56656,185.1988 L150.90996,119.7594 C153.40197,113.006859 158.175139,107.337321 164.40422,103.73101 L171.93096,99.37343 L167.41383,165.32343 L154.76588,201.46045 Z" id="Path" fill="#E6E6E6"></path>
            <path d="M332.2889,383.50061 C310.47563,396.12074 255.94981,403.1557 232.00872,394.34171 C230.24703,332.76894 226.79208,158.60271 237.88098,84.91865 L277.63168,101.1803 L274.01798,149.96525 C255.01391,191.69812 310.19761,337.05399 332.2889,383.50061 Z" id="Path" fill="#E6E6E6"></path>
            <polygon id="Path" fill="#E6E6E6" points="329.127 193.33 304.734 185.199 272.211 148.158 277.632 101.18 331.837 177.068"></polygon>
            <path d="M252.68118,228.49394 C253.512221,232.140627 257.137465,234.427173 260.78642,233.60615 L281.49242,228.91698 L278.49983,215.70042 L257.7934,220.3887 C254.143807,221.215634 251.855208,224.844131 252.68119,228.49394 L252.68118,228.49394 Z" id="Path" fill="#FFB9B9"></path>
            <path d="M243.30153,42.45761 C227.74579,36.06111 212.38233,35.59825 197.22686,41.55419 L190.90286,18.96856 L248.72206,18.96856 L243.30153,42.45761 Z" id="Path" fill="#2F2E41"></path>
            <path d="M271.30771,213.20498 L283.05223,234.88718 C302.80633,229.37763 319.92635,212.0084 336.35431,191.52278 L331.83718,177.06798 L303.83101,184.29538 L271.30771,213.20498 Z" id="Path" fill="#E6E6E6"></path>
            <path d="M262.72517,168.48544 L259.11147,168.48544 C259.11147,117.37487 248.58798,81.75664 238.3327,81.75664 L237.42927,78.14294 C246.62627,78.14294 252.48974,92.96694 255.78891,105.40317 C260.26193,122.26255 262.72517,144.66554 262.72517,168.48544 Z" id="Path" fill="#3F3D56"></path>
            <path d="M179.61007,155.83749 L175.99633,155.83749 C175.99633,109.02834 186.59261,79.94979 202.19566,79.94979 L201.29223,83.56349 C190.49969,83.56349 179.61007,105.91135 179.61007,155.83749 Z" id="Path" fill="#3F3D56"></path>
            <circle id="Oval" fill="#3F3D56" cx="260.91832" cy="169.38886" r="9.03425"></circle>
            <path d="M165.15527,177.51969 L161.54157,177.51969 C161.54157,164.5678 168.83646,154.03064 177.80322,154.03064 L177.80322,157.64434 C170.82903,157.64434 165.15527,166.56037 165.15527,177.51969 Z" id="Path" fill="#3F3D56"></path>
            <path d="M194.06487,177.51969 L190.45117,177.51969 C190.45117,166.56037 184.77741,157.64434 177.80322,157.64434 L177.80322,154.03061 C186.76998,154.03061 194.06487,164.5678 194.06487,177.51969 Z" id="Path" fill="#3F3D56"></path>
            <circle id="Oval" fill="#3F3D56" cx="192.25802" cy="178.42311" r="3.6137"></circle>
            <circle id="Oval" fill="#3F3D56" cx="163.34842" cy="178.42311" r="3.6137"></circle>
            <polygon id="Path" fill="#63AFB1" points="118.177 145.193 140.724 149.219 192.258 222.495 164.88 216.053"></polygon>
            <path d="M114.17793,144.29588 C113.478145,144.306412 112.839671,144.697331 112.512113,145.315809 C112.184555,145.934287 112.219938,146.682093 112.60443,147.26688 L160.77578,220.35476 C161.044584,220.763357 161.459788,221.053369 161.93594,221.16511 L184.34864,226.43832 C185.122303,226.620413 185.92801,226.305524 186.373173,225.647085 C186.818337,224.988646 186.810352,224.123629 186.35311,223.47352 L133.46393,148.27175 C133.174256,147.85796 132.731985,147.576282 132.23452,147.48875 L114.53921,144.32852 C114.419966,144.30712 114.299078,144.29588 114.17793,144.29588 Z" id="Path" fill="#3F3D56"></path>
            <path d="M144.2274,195.55293 L145.56621,209.03814 L166.69259,206.94103 C170.416428,206.571449 173.13559,203.253078 172.76601,199.52924 C172.396429,195.805402 169.078058,193.08624 165.35422,193.45582 L144.2274,195.55293 Z" id="Path" fill="#FFB9B9"></path>
            <path d="M125.85672,193.9909 C125.920583,203.562072 133.691712,211.290465 143.26309,211.30155 L146.73696,211.30155 L149.26596,190.2259 L128.32617,182.68751 L125.85672,193.9909 Z" id="Path" fill="#E6E6E6"></path>
            <path d="M25.17642,490.24301 C39.59607,509.55401 69.52842,511.58654 69.52842,511.58654 C69.52842,511.58654 76.08194,482.30975 61.66229,462.99874 C47.24264,443.68773 17.31029,441.65521 17.31029,441.65521 C17.31029,441.65521 10.75677,470.932 25.17642,490.24301 Z" id="Path" fill="#E6E6E6"></path>
            <path d="M98.63314,497.50261 C89.11805,510.24536 69.36656,511.58656 69.36656,511.58656 C69.36656,511.58656 65.04209,492.26769 74.55719,479.52494 C84.07229,466.78219 103.82377,465.44094 103.82377,465.44094 C103.82377,465.44094 108.14824,484.75983 98.63314,497.50261 Z" id="Path" fill="#E6E6E6"></path>
            <rect id="Rectangle" fill="#3F3D56" x="0" y="555.6565" width="519.55666" height="2.24072"></rect>
        </g>
    </g>
</svg>